<svg width="78" height="81" viewBox="0 0 78 81" fill="currentColor" xmlns="http://www.w3.org/2000/svg">
<path d="M40.4 40.32C31.08 22.28 38.4 6.40001 42.52 0.0400085C21.08 0.800009 3.91998 18.36 3.91998 40C3.91998 40.56 3.99998 41.12 3.99998 41.68C6.47998 40.6 9.15998 40 12 40C18.64 40 24.72 43.32 28.4 48.6C35.08 50.52 40 56.68 40 64C40 70.08 36.52 75.32 31.52 78.04C35.44 79.32 39.64 80.04 43.96 80.04C57.96 80.04 70.28 72.84 77.44 61.96C68 62.88 49.52 58.08 40.4 40.32Z" fill="currentColor"/>
<path d="M24 56H23.28C21.6 51.36 17.2 48 12 48C5.36 48 0 53.36 0 60C0 66.64 5.36 72 12 72C14.48 72 21.96 72 24 72C28.4 72 32 68.4 32 64C32 59.6 28.4 56 24 56Z" fill="currentColor"/>
</svg>
